<svg width="49" height="48" viewBox="0 0 49 48" fill="none" xmlns="http://www.w3.org/2000/svg">
<g filter="url(#filter0_d_1650_105)">
<rect x="8.5" y="6" width="32" height="32" rx="16" fill="white" shape-rendering="crispEdges"/>
<path d="M30 21V18" stroke="black" stroke-linecap="round" stroke-linejoin="round"/>
<path d="M31.5 19.5H28.5" stroke="black" stroke-linecap="round" stroke-linejoin="round"/>
<path d="M27 15.5V17.5" stroke="black" stroke-linecap="round" stroke-linejoin="round"/>
<path d="M28 16.5H26" stroke="black" stroke-linecap="round" stroke-linejoin="round"/>
<path d="M30.0437 23.5375C29.062 23.8128 28.0248 23.8218 27.0385 23.5637C26.0522 23.3055 25.1524 22.7895 24.4314 22.0686C23.7105 21.3476 23.1945 20.4478 22.9363 19.4615C22.6782 18.4752 22.6872 17.438 22.9625 16.4563C21.9946 16.7257 21.1143 17.2439 20.409 17.9594C19.7038 18.675 19.1984 19.5627 18.9431 20.5344C18.6877 21.506 18.6915 22.5276 18.9538 23.4974C19.2162 24.4671 19.728 25.3512 20.4384 26.0616C21.1488 26.772 22.0329 27.2838 23.0026 27.5462C23.9724 27.8086 24.994 27.8123 25.9656 27.5569C26.9373 27.3016 27.8251 26.7962 28.5406 26.091C29.2561 25.3858 29.7743 24.5054 30.0437 23.5375Z" stroke="black" stroke-linecap="round" stroke-linejoin="round"/>
</g>
<defs>
<filter id="filter0_d_1650_105" x="0.5" y="0" width="48" height="48" filterUnits="userSpaceOnUse" color-interpolation-filters="sRGB">
<feFlood flood-opacity="0" result="BackgroundImageFix"/>
<feColorMatrix in="SourceAlpha" type="matrix" values="0 0 0 0 0 0 0 0 0 0 0 0 0 0 0 0 0 0 127 0" result="hardAlpha"/>
<feOffset dy="2"/>
<feGaussianBlur stdDeviation="4"/>
<feComposite in2="hardAlpha" operator="out"/>
<feColorMatrix type="matrix" values="0 0 0 0 0 0 0 0 0 0 0 0 0 0 0 0 0 0 0.25 0"/>
<feBlend mode="normal" in2="BackgroundImageFix" result="effect1_dropShadow_1650_105"/>
<feBlend mode="normal" in="SourceGraphic" in2="effect1_dropShadow_1650_105" result="shape"/>
</filter>
</defs>
</svg>
